<svg xmlns="http://www.w3.org/2000/svg" fill="none" viewBox="0 0 409 144" height="144" width="409">
<g clip-path="url(#clip0_1257_5493)">
<path fill="#416FDC" d="M127.3 111.7C127.3 111.3 127.3 110.9 127.5 110.6L166 2C166.4 0.7 167.4 0 168.9 0H183.6C185.1 0 186 0.7 186.5 2L225.1 110.7L225.3 111.7C225.3 112.2 225.1 112.7 224.7 113C224.3 113.3 223.8 113.5 223.1 113.5H213.2C211.8 113.5 210.9 112.8 210.4 111.5L200.5 82.7H151.8L141.9 111.5C141.4 112.8 140.5 113.5 139.1 113.5H129.6C128.2 113.5 127.5 112.9 127.5 111.8L127.3 111.7ZM196.1 70.4L176 12.3L155.9 70.4H196.1Z"></path>
<path fill="#416FDC" d="M254.2 143.5C253.8 143.2 253.6 142.7 253.6 142.2C253.6 141.7 253.6 141.6 253.8 141.1L264 115L231.6 33.1998C231.4 32.7998 231.4 32.3998 231.4 31.9998C231.4 30.7998 232.1 30.2998 233.5 30.2998H243C244.4 30.2998 245.4 30.9998 245.8 32.2998L271.2 98.1998L296.7 32.2998C297.1 30.9998 298.1 30.2998 299.5 30.2998H308.5C309.9 30.2998 310.6 30.8998 310.6 31.9998C310.6 33.0998 310.6 32.6998 310.4 33.1998L267.6 142C267.1 143.3 266.2 144 264.8 144H255.9C255.2 144 254.6 143.8 254.3 143.5H254.2Z"></path>
<path fill="#416FDC" d="M396.2 100.8C397 101.8 398.5 102.2 400.5 102.2H405.9C406.7 102.2 407.3 102.4 407.7 102.9C408.1 103.3 408.4 103.9 408.4 104.7V110.9C408.4 111.7 408.2 112.3 407.7 112.7C407.3 113.1 406.7 113.4 405.9 113.4H396.5C391.7 113.4 388.1 112.2 385.6 109.8C383.2 107.4 381.9 103.7 381.8 98.8002C378.5 104.2 374.2 108.2 368.9 110.9C363.7 113.6 357.8 115 351.3 115C344.8 115 340.8 114 336.6 112C332.4 110 329.1 107.1 326.8 103.5C324.5 99.9002 323.3 95.7002 323.3 91.0002C323.3 84.2002 325.7 78.8002 330.4 74.8002C335.1 70.8002 342.1 68.3002 351.4 67.2002L381 63.8002V57.4002C381 53.9002 380.2 50.9002 378.5 48.3002C376.9 45.7002 374.5 43.7002 371.5 42.3002C368.5 40.9002 364.9 40.2002 360.8 40.2002C356.7 40.2002 351 41.4002 347.3 43.9002C343.6 46.3002 341.3 49.6002 340.4 53.7002C340.1 55.2002 339.2 55.9002 337.8 55.9002H329.3C328.5 55.9002 327.8 55.7002 327.4 55.2002C327 54.7002 326.8 54.1002 327 53.3002C327.8 48.5002 329.7 44.2002 332.7 40.5002C335.7 36.8002 339.7 33.9002 344.6 31.8002C349.5 29.7002 355 28.7002 361.2 28.7002C367.4 28.7002 373.7 29.9002 378.8 32.2002C383.8 34.5002 387.7 37.8002 390.5 42.0002C393.2 46.2002 394.6 51.1002 394.6 56.6002V96.1002C394.6 98.3002 395 100 395.9 100.9L396.2 100.8ZM341.9 100.6C345 103.1 349.2 104.3 354.4 104.3C359.6 104.3 363.3 103.3 367.4 101.3C371.5 99.3002 374.9 96.3002 377.5 92.3002C380.1 88.3002 381.4 83.6002 381.4 78.0002V73.6002L355 76.6002C348.9 77.3002 344.4 78.7002 341.5 80.9002C338.6 83.1002 337.2 86.2002 337.2 90.3002C337.2 94.4002 338.8 98.1002 341.9 100.6Z"></path>
<path fill="#416FDC" d="M2.1 72.5999C0.9 72.5999 0 73.5999 0 74.6999C0.1 85.9999 4.9 96.2999 12.6 103.3C21.6 111.4 30 113.5 41.5 113.5H64.2C65.4 113.5 66.3 112.5 66.3 111.4C66.2 100.1 61.4 89.7999 53.7 82.8999C44.7 74.7999 36.3 72.5999 24.8 72.5999H2.1Z" clip-rule="evenodd" fill-rule="evenodd"></path>
<path fill="#416FDC" d="M111.1 48.3997C111.9 48.3997 112.6 49.0997 112.6 49.8997C112.6 58.0997 109 65.5997 103.4 70.5997C96.9 76.3997 90.8 77.9997 82.5 77.9997H66.1C65.3 77.9997 64.6 77.2997 64.6 76.4997C64.6 68.2997 68.2 60.7997 73.8 55.8997C80.3 50.0997 86.4 48.4997 94.7 48.4997H111.1V48.3997Z" clip-rule="evenodd" fill-rule="evenodd"></path>
<path fill="#416FDC" d="M9.09998 25.6997C8.29998 25.6997 7.59998 26.3997 7.59998 27.1997C7.59998 35.2997 11.1 42.5997 16.6 47.5997C23 53.3997 29 54.8997 37.2 54.8997H53.4C54.2 54.8997 54.9 54.1997 54.9 53.3997C54.9 45.2997 51.4 37.9997 45.9 32.9997C39.5 27.1997 33.5 25.6997 25.3 25.6997H9.09998Z" clip-rule="evenodd" fill-rule="evenodd"></path>
<path fill="#416FDC" d="M88.5 0.199772C89.1 -0.100228 89.8 0.199772 90.1 0.699772C93.2 6.39977 93.6 12.7998 91.7 18.3998C89.5 24.8998 85.9 28.2998 80.2 31.4998L68.9 37.7998C68.3 38.0998 67.6 37.7998 67.3 37.2998C64.2 31.5998 63.8 25.1998 65.7 19.5998C67.9 13.0998 71.5 9.69977 77.2 6.49977L88.5 0.199772Z" clip-rule="evenodd" fill-rule="evenodd"></path>
</g>
<defs>
<clipPath id="clip0_1257_5493">
<rect fill="white" height="144" width="408.4"></rect>
</clipPath>
</defs>
</svg>
